<svg width="58" height="58" viewBox="0 0 58 58" fill="none" xmlns="http://www.w3.org/2000/svg">
<rect width="58" height="58" rx="8" fill="white" fill-opacity="0.05"/>
<path d="M42.5616 30.8083V24.2407C42.5616 17.9606 42.5616 14.8197 40.7082 12.8686C38.8547 10.9174 35.8711 10.9174 29.9038 10.9174H24.4791C18.5118 10.9174 15.5282 10.9174 13.6748 12.8704C11.8213 14.8179 11.8213 17.9588 11.8213 24.2389V33.7575C11.8213 40.0376 11.8213 43.1785 13.6748 45.1297C15.5282 47.0808 18.5118 47.0826 24.4791 47.0826H27.1915M31.7121 43.4661C31.7121 43.4661 33.5204 43.4661 35.3286 47.0826C35.3286 47.0826 41.0734 38.0413 46.1782 36.233" stroke="#787878" stroke-width="3.625" stroke-linecap="round" stroke-linejoin="round"/>
<path d="M19.959 10.9174L20.1073 11.8089C20.4689 13.9734 20.6497 15.0565 21.4092 15.7003C22.1651 16.3422 23.2627 16.3422 25.4579 16.3422H28.9243C31.1177 16.3422 32.2153 16.3422 32.9748 15.7003C33.7343 15.0565 33.9151 13.9734 34.2749 11.8089L34.425 10.9174M19.959 36.233H27.192M19.959 27.1918H34.425" stroke="#787878" stroke-width="3.625" stroke-linecap="round" stroke-linejoin="round"/>
</svg>
