<svg width="24" height="24" viewBox="0 0 24 24" fill="none" xmlns="http://www.w3.org/2000/svg">
<path d="M17.5761 10.48C17.6978 10.3266 17.7547 10.1317 17.7346 9.93697C17.7145 9.7422 17.6191 9.56301 17.4687 9.43766C17.3183 9.31232 17.1248 9.25076 16.9296 9.26615C16.7344 9.28153 16.553 9.37264 16.4241 9.52L14.6271 11.676C14.2571 12.121 14.0281 12.392 13.8411 12.561C13.7921 12.6084 13.7374 12.6494 13.6781 12.683L13.6671 12.688L13.6561 12.683C13.5964 12.6495 13.5413 12.6085 13.4921 12.561C13.3051 12.391 13.0771 12.121 12.7061 11.676L12.4141 11.326C12.0861 10.931 11.7891 10.576 11.5131 10.326C11.2121 10.054 10.8331 9.812 10.3331 9.812C9.83306 9.812 9.45506 10.054 9.15306 10.326C8.87706 10.576 8.58106 10.931 8.25306 11.326L6.42306 13.52C6.36002 13.5957 6.31252 13.6831 6.28325 13.7772C6.25399 13.8712 6.24354 13.9701 6.2525 14.0682C6.2706 14.2664 6.36666 14.4492 6.51956 14.5765C6.67245 14.7038 6.86966 14.7652 7.06779 14.7471C7.26593 14.729 7.44875 14.6329 7.57606 14.48L9.37306 12.324C9.74306 11.879 9.97206 11.608 10.1591 11.439C10.208 11.3916 10.2627 11.3506 10.3221 11.317L10.3331 11.312L10.3441 11.317C10.4037 11.3505 10.4588 11.3915 10.5081 11.439C10.6951 11.609 10.9231 11.879 11.2941 12.324L11.5861 12.674C11.9151 13.069 12.2111 13.424 12.4871 13.674C12.7881 13.946 13.1671 14.188 13.6671 14.188C14.1671 14.188 14.5451 13.946 14.8471 13.674C15.1231 13.424 15.4191 13.069 15.7471 12.674L17.5761 10.48Z" fill="white"/>
<path fill-rule="evenodd" clip-rule="evenodd" d="M11.943 1.25C9.634 1.25 7.825 1.25 6.413 1.44C4.969 1.634 3.829 2.04 2.934 2.934C2.039 3.829 1.634 4.969 1.44 6.414C1.25 7.825 1.25 9.634 1.25 11.943V12.057C1.25 14.366 1.25 16.175 1.44 17.587C1.634 19.031 2.04 20.171 2.934 21.066C3.829 21.961 4.969 22.366 6.414 22.56C7.825 22.75 9.634 22.75 11.943 22.75H12.057C14.366 22.75 16.175 22.75 17.587 22.56C19.031 22.366 20.171 21.96 21.066 21.066C21.961 20.171 22.366 19.031 22.56 17.586C22.75 16.175 22.75 14.366 22.75 12.057V11.943C22.75 9.634 22.75 7.825 22.56 6.413C22.366 4.969 21.96 3.829 21.066 2.934C20.171 2.039 19.031 1.634 17.586 1.44C16.175 1.25 14.366 1.25 12.057 1.25H11.943ZM3.995 3.995C4.565 3.425 5.335 3.098 6.614 2.926C7.914 2.752 9.622 2.75 12 2.75C14.378 2.75 16.086 2.752 17.386 2.926C18.665 3.098 19.436 3.426 20.006 3.995C20.575 4.565 20.902 5.335 21.074 6.614C21.248 7.914 21.25 9.622 21.25 12C21.25 14.378 21.248 16.086 21.074 17.386C20.902 18.665 20.574 19.436 20.005 20.006C19.435 20.575 18.665 20.902 17.386 21.074C16.086 21.248 14.378 21.25 12 21.25C9.622 21.25 7.914 21.248 6.614 21.074C5.335 20.902 4.564 20.574 3.994 20.005C3.425 19.435 3.098 18.665 2.926 17.386C2.752 16.086 2.75 14.378 2.75 12C2.75 9.622 2.752 7.914 2.926 6.614C3.098 5.335 3.426 4.565 3.995 3.995Z" fill="white"/>
</svg>
