<svg width="58" height="58" viewBox="0 0 58 58" fill="none" xmlns="http://www.w3.org/2000/svg">
<rect width="58" height="58" rx="8" fill="white" fill-opacity="0.05"/>
<path d="M36.326 29.9158C31.271 29.9158 27.1684 34.0184 27.1684 39.0734C27.1684 44.1284 31.271 48.2311 36.326 48.2311C41.381 48.2311 45.4837 44.1284 45.4837 39.0734C45.4837 34.0184 41.381 29.9158 36.326 29.9158ZM39.348 43.3775L35.4103 39.4397V33.5788H37.2418V38.6888L40.6301 42.0771L39.348 43.3775ZM38.1576 13.432H32.3333C31.564 11.3074 29.5494 9.76892 27.1684 9.76892C24.7874 9.76892 22.7727 11.3074 22.0034 13.432H16.1792C14.1645 13.432 12.5161 15.0804 12.5161 17.095V44.568C12.5161 46.5827 14.1645 48.2311 16.1792 48.2311H27.3698C26.2849 47.1805 25.4032 45.9387 24.7691 44.568H16.1792V17.095H19.8422V22.5896H34.4945V17.095H38.1576V26.3992C39.4579 26.5824 40.6851 26.967 41.8206 27.4981V17.095C41.8206 15.0804 40.1722 13.432 38.1576 13.432ZM27.1684 17.095C26.161 17.095 25.3368 16.2709 25.3368 15.2635C25.3368 14.2562 26.161 13.432 27.1684 13.432C28.1757 13.432 28.9999 14.2562 28.9999 15.2635C28.9999 16.2709 28.1757 17.095 27.1684 17.095Z" fill="#787878"/>
</svg>
