<svg width="58" height="58" viewBox="0 0 58 58" fill="none" xmlns="http://www.w3.org/2000/svg">
<rect width="58" height="58" rx="8" fill="white" fill-opacity="0.05"/>
<path d="M13.2981 18.9682C13.2981 17.4644 13.8955 16.0222 14.9588 14.9588C16.0222 13.8955 17.4644 13.2981 18.9682 13.2981H39.0318C40.5356 13.2981 41.9778 13.8955 43.0412 14.9588C44.1045 16.0222 44.7019 17.4644 44.7019 18.9682V39.0318C44.7019 40.5356 44.1045 41.9778 43.0412 43.0412C41.9778 44.1045 40.5356 44.7019 39.0318 44.7019H18.9682C17.4644 44.7019 16.0222 44.1045 14.9588 43.0412C13.8955 41.9778 13.2981 40.5356 13.2981 39.0318V18.9682ZM18.9682 15.9151C18.1585 15.9151 17.3819 16.2368 16.8093 16.8093C16.2368 17.3819 15.9151 18.1585 15.9151 18.9682V39.0318C15.9151 40.7171 17.2829 42.0849 18.9682 42.0849H39.0318C39.8415 42.0849 40.6181 41.7633 41.1907 41.1907C41.7633 40.6181 42.0849 39.8415 42.0849 39.0318V18.9682C42.0849 18.1585 41.7633 17.3819 41.1907 16.8093C40.6181 16.2368 39.8415 15.9151 39.0318 15.9151H18.9682ZM18.5321 22.4575C18.5321 20.7722 19.8999 19.4044 21.5852 19.4044H36.4148C38.1001 19.4044 39.4679 20.7722 39.4679 22.4575V25.0745C39.4679 25.8843 39.1463 26.6609 38.5737 27.2334C38.0011 27.806 37.2245 28.1277 36.4148 28.1277H21.5852C20.7755 28.1277 19.9989 27.806 19.4263 27.2334C18.8537 26.6609 18.5321 25.8843 18.5321 25.0745V22.4575ZM21.5852 22.0214C21.4695 22.0214 21.3586 22.0673 21.2768 22.1491C21.195 22.2309 21.149 22.3419 21.149 22.4575V25.0745C21.149 25.3153 21.3444 25.5107 21.5852 25.5107H36.4148C36.5305 25.5107 36.6414 25.4647 36.7232 25.3829C36.805 25.3011 36.851 25.1902 36.851 25.0745V22.4575C36.851 22.3419 36.805 22.2309 36.7232 22.1491C36.6414 22.0673 36.5305 22.0214 36.4148 22.0214H21.5852ZM19.8406 30.7447C19.4935 30.7447 19.1607 30.8825 18.9153 31.1279C18.6699 31.3733 18.5321 31.7061 18.5321 32.0531C18.5321 32.4002 18.6699 32.733 18.9153 32.9784C19.1607 33.2238 19.4935 33.3616 19.8406 33.3616H27.6915C28.0385 33.3616 28.3714 33.2238 28.6168 32.9784C28.8621 32.733 29 32.4002 29 32.0531C29 31.7061 28.8621 31.3733 28.6168 31.1279C28.3714 30.8825 28.0385 30.7447 27.6915 30.7447H19.8406ZM18.5321 37.2871C18.5321 36.9401 18.6699 36.6073 18.9153 36.3619C19.1607 36.1165 19.4935 35.9786 19.8406 35.9786H27.6915C28.0385 35.9786 28.3714 36.1165 28.6168 36.3619C28.8621 36.6073 29 36.9401 29 37.2871C29 37.6342 28.8621 37.967 28.6168 38.2124C28.3714 38.4578 28.0385 38.5956 27.6915 38.5956H19.8406C19.4935 38.5956 19.1607 38.4578 18.9153 38.2124C18.6699 37.967 18.5321 37.6342 18.5321 37.2871ZM34.6701 30.7447C33.8604 30.7447 33.0838 31.0663 32.5112 31.6389C31.9387 32.2115 31.617 32.9881 31.617 33.7978V35.5425C31.617 37.2278 32.9848 38.5956 34.6701 38.5956H36.4148C37.2245 38.5956 38.0011 38.2739 38.5737 37.7014C39.1463 37.1288 39.4679 36.3522 39.4679 35.5425V33.7978C39.4679 32.9881 39.1463 32.2115 38.5737 31.6389C38.0011 31.0663 37.2245 30.7447 36.4148 30.7447H34.6701ZM34.234 33.7978C34.234 33.6821 34.2799 33.5712 34.3617 33.4894C34.4435 33.4076 34.5545 33.3616 34.6701 33.3616H36.4148C36.5305 33.3616 36.6414 33.4076 36.7232 33.4894C36.805 33.5712 36.851 33.6821 36.851 33.7978V35.5425C36.851 35.6581 36.805 35.7691 36.7232 35.8509C36.6414 35.9327 36.5305 35.9786 36.4148 35.9786H34.6701C34.5545 35.9786 34.4435 35.9327 34.3617 35.8509C34.2799 35.7691 34.234 35.6581 34.234 35.5425V33.7978Z" fill="#787878"/>
</svg>
