<svg width="58" height="58" viewBox="0 0 58 58" fill="none" xmlns="http://www.w3.org/2000/svg">
<rect width="58" height="58" rx="8" fill="white" fill-opacity="0.05"/>
<path d="M11.3538 29C11.3538 20.6817 11.3538 16.5225 13.9371 13.9373C16.5241 11.3539 20.6815 11.3539 28.9998 11.3539C37.3182 11.3539 41.4774 11.3539 44.0607 13.9373C46.6459 16.5242 46.6459 20.6817 46.6459 29C46.6459 37.3184 46.6459 41.4775 44.0607 44.0609C41.4791 46.6461 37.3182 46.6461 28.9998 46.6461C20.6815 46.6461 16.5223 46.6461 13.9371 44.0609C11.3538 41.4793 11.3538 37.3184 11.3538 29Z" stroke="#787878" stroke-width="1.63"/>
<path d="M20.1768 32.5292L24.223 28.4829C24.5539 28.1521 25.0027 27.9663 25.4706 27.9663C25.9385 27.9663 26.3872 28.1521 26.7182 28.4829L29.5168 31.2816C29.8477 31.6124 30.2965 31.7983 30.7644 31.7983C31.2323 31.7983 31.6811 31.6124 32.012 31.2816L37.8228 25.4708M37.8228 25.4708V29.8823M37.8228 25.4708H33.4113" stroke="#787878" stroke-width="1.63" stroke-linecap="round" stroke-linejoin="round"/>
</svg>
