<svg width="55" height="58" viewBox="0 0 55 58" fill="none" xmlns="http://www.w3.org/2000/svg">
<rect width="55" height="58" rx="8" fill="white" fill-opacity="0.05"/>
<path d="M22.5821 17.75C21.5689 17.7541 20.5983 18.1703 19.8819 18.9078C19.1654 19.6454 18.7611 20.6445 18.7571 21.6875C18.7571 23.8498 20.4816 25.625 22.5821 25.625C24.6826 25.625 26.4071 23.8498 26.4071 21.6875C26.4071 19.5252 24.6826 17.75 22.5821 17.75ZM32.4178 17.75C31.4046 17.7541 30.434 18.1703 29.7176 18.9078C29.0011 19.6454 28.5968 20.6445 28.5928 21.6875C28.5928 23.8498 30.3173 25.625 32.4178 25.625C34.5183 25.625 36.2428 23.8498 36.2428 21.6875C36.2428 19.5252 34.5183 17.75 32.4178 17.75ZM22.5821 20C23.5001 20 24.2214 20.7425 24.2214 21.6875C24.2214 22.6325 23.5001 23.375 22.5821 23.375C21.6641 23.375 20.9428 22.6325 20.9428 21.6875C20.9428 20.7425 21.6641 20 22.5821 20ZM32.4178 20C33.3358 20 34.0571 20.7425 34.0571 21.6875C34.0571 22.6325 33.3358 23.375 32.4178 23.375C31.4998 23.375 30.7785 22.6325 30.7785 21.6875C30.7785 20.7425 31.4998 20 32.4178 20ZM17.6642 24.5C15.26 24.5 13.2928 26.525 13.2928 29C13.2928 30.2521 13.8141 31.3816 14.625 32.1995C13.8814 32.7165 13.2717 33.4127 12.8491 34.2276C12.4265 35.0425 12.2036 35.9513 12.2 36.875H14.3857C14.3857 34.9985 15.8414 33.5 17.6642 33.5C19.4871 33.5 20.9428 34.9985 20.9428 36.875H23.1285C23.1249 35.9513 22.902 35.0425 22.4794 34.2276C22.0567 33.4127 21.4471 32.7165 20.7035 32.1995C21.5144 31.3816 22.0357 30.2533 22.0357 29C22.0357 26.525 20.0685 24.5 17.6642 24.5ZM23.1285 36.875C22.4455 37.8155 22.0357 38.9979 22.0357 40.25H24.2214C24.2214 38.3735 25.6771 36.875 27.5 36.875C29.3228 36.875 30.7785 38.3735 30.7785 40.25H32.9642C32.9627 39.0332 32.5794 37.8494 31.8714 36.875C31.4998 36.3654 31.0517 35.93 30.5392 35.5745C31.3501 34.7566 31.8714 33.6283 31.8714 32.375C31.8714 29.9 29.9042 27.875 27.5 27.875C25.0957 27.875 23.1285 29.9 23.1285 32.375C23.1285 33.6271 23.6498 34.7566 24.4607 35.5745C23.9486 35.9276 23.4982 36.3673 23.1285 36.875ZM31.8714 36.875H34.0571C34.0571 34.9985 35.5128 33.5 37.3357 33.5C39.1586 33.5 40.6142 34.9985 40.6142 36.875H42.7999C42.7963 35.9513 42.5734 35.0425 42.1508 34.2276C41.7282 33.4127 41.1185 32.7165 40.3749 32.1995C41.1858 31.3816 41.7071 30.2533 41.7071 29C41.7071 26.525 39.74 24.5 37.3357 24.5C34.9314 24.5 32.9642 26.525 32.9642 29C32.9642 30.2521 33.4855 31.3816 34.2964 32.1995C33.5528 32.7165 32.9432 33.4127 32.5205 34.2276C32.0979 35.0425 31.875 35.9513 31.8714 36.875ZM17.6642 26.75C18.885 26.75 19.85 27.7434 19.85 29C19.85 30.2566 18.885 31.25 17.6642 31.25C16.4435 31.25 15.4785 30.2566 15.4785 29C15.4785 27.7434 16.4435 26.75 17.6642 26.75ZM37.3357 26.75C38.5564 26.75 39.5214 27.7434 39.5214 29C39.5214 30.2566 38.5564 31.25 37.3357 31.25C36.1149 31.25 35.15 30.2566 35.15 29C35.15 27.7434 36.1149 26.75 37.3357 26.75ZM27.5 30.125C28.7207 30.125 29.6857 31.1184 29.6857 32.375C29.6857 33.6316 28.7207 34.625 27.5 34.625C26.2792 34.625 25.3142 33.6316 25.3142 32.375C25.3142 31.1184 26.2792 30.125 27.5 30.125Z" fill="#787878"/>
</svg>
