<svg width="55" height="58" viewBox="0 0 55 58" fill="none" xmlns="http://www.w3.org/2000/svg">
<rect width="55" height="58" rx="8" fill="white" fill-opacity="0.05"/>
<path d="M19.0407 35H25.2073M19.0407 27.5H31.374M24.4365 44H25.9782M20.5777 44C18.8048 43.9625 17.6116 44 16.0714 43.6625C14.4527 43.25 13.4506 42.275 13.1053 40.325C12.7584 39.05 12.8694 33.386 12.874 27.9875C12.8771 23.798 12.9048 19.9985 13.2594 19.2125C13.7605 17.525 14.9152 16.325 18.498 16.2875M33.7112 16.2875C34.9445 16.4 38.1666 16.2875 38.7956 19.7375C39.1378 21.6125 39.0654 24.275 39.0654 27.4625M21.6168 19.25C23.2356 19.2875 28.4341 19.25 30.207 19.25C31.9783 19.25 32.9141 17.831 32.9033 16.5125C32.891 15.1685 31.67 14.12 30.4752 14H21.5798C20.1538 14.075 19.1902 15.2 19.0361 16.325C18.8819 17.8625 20.0381 19.175 21.6168 19.25ZM37.1784 32.5625C35.0586 34.6625 30.9763 38.4125 30.9763 38.675C30.6479 39.1205 30.3596 40.025 30.1669 41.3C29.9264 42.482 29.6366 43.5125 29.9757 43.8125C30.3149 44.1125 31.5898 43.8605 32.9403 43.5875C34.0195 43.475 35.0216 43.1 35.5211 42.725C36.2534 42.095 41.2222 37.2125 41.8003 36.575C42.2227 36.0125 42.2628 34.9625 41.8928 34.325C41.6847 33.875 40.3743 32.675 39.9503 32.3375C39.524 32.0817 39.0247 31.9655 38.5255 32.006C38.0264 32.0465 37.5553 32.2415 37.1784 32.5625Z" stroke="#787878" stroke-width="3.5" stroke-linecap="round" stroke-linejoin="round"/>
</svg>
