<svg width="58" height="58" viewBox="0 0 58 58" fill="none" xmlns="http://www.w3.org/2000/svg">
<rect width="58" height="58" rx="8" fill="white" fill-opacity="0.05"/>
<path d="M37.4298 37.6461L39.1572 39.3752M39.1572 39.3752L40.8882 41.1044M39.1572 39.3752L40.8882 37.6461M39.1572 39.3752L37.4298 41.1044M46.0757 39.3752C46.0757 41.2097 45.347 42.969 44.0499 44.2661C42.7527 45.5633 40.9934 46.292 39.159 46.292C37.3245 46.292 35.5652 45.5633 34.2681 44.2661C32.9709 42.969 32.2422 41.2097 32.2422 39.3752C32.2422 37.5408 32.9709 35.7815 34.2681 34.4843C35.5652 33.1872 37.3245 32.4585 39.159 32.4585C40.9934 32.4585 42.7527 33.1872 44.0499 34.4843C45.347 35.7815 46.0757 37.5408 46.0757 39.3752Z" stroke="#787878" stroke-width="1.63" stroke-linecap="round" stroke-linejoin="round"/>
<path d="M20.9213 38.4882C20.8019 38.6118 20.7082 38.758 20.6458 38.9182C20.5833 39.0783 20.5534 39.2493 20.5576 39.4212C20.5619 39.5931 20.6002 39.7624 20.6705 39.9193C20.7408 40.0762 20.8416 40.2175 20.9669 40.3352C21.0923 40.4528 21.2399 40.5443 21.401 40.6043C21.562 40.6644 21.7335 40.6918 21.9052 40.6851C22.077 40.6783 22.2458 40.6374 22.4016 40.5649C22.5574 40.4923 22.6973 40.3894 22.8131 40.2623L20.9213 38.4882ZM27.1914 38.0714C27.3608 38.0535 27.525 38.0024 27.6746 37.921C27.8243 37.8396 27.9564 37.7295 28.0635 37.597C28.1706 37.4645 28.2506 37.3123 28.2988 37.1489C28.3471 36.9855 28.3627 36.8142 28.3448 36.6448C28.3268 36.4754 28.2757 36.3112 28.1943 36.1616C28.1129 36.0119 28.0028 35.8798 27.8703 35.7727C27.7379 35.6656 27.5856 35.5856 27.4222 35.5374C27.2588 35.4891 27.0876 35.4735 26.9182 35.4915L27.1914 38.0714ZM23.6016 16.4634C23.7719 16.4627 23.9404 16.4285 24.0975 16.3627C24.2546 16.2969 24.3971 16.2008 24.5171 16.0799C24.637 15.959 24.732 15.8156 24.7965 15.658C24.8611 15.5004 24.894 15.3316 24.8933 15.1613C24.8926 14.991 24.8584 14.8225 24.7926 14.6654C24.7268 14.5083 24.6307 14.3658 24.5098 14.2458C24.3888 14.1259 24.2455 14.0309 24.0879 13.9664C23.9303 13.9018 23.7615 13.8689 23.5912 13.8696L23.6016 16.4634ZM32.2475 13.8696C32.0772 13.8689 31.9085 13.9018 31.7508 13.9664C31.5932 14.0309 31.4499 14.1259 31.329 14.2458C31.2081 14.3658 31.112 14.5083 31.0462 14.6654C30.9804 14.8225 30.9461 14.991 30.9455 15.1613C30.9448 15.3316 30.9776 15.5004 31.0422 15.658C31.1067 15.8156 31.2017 15.959 31.3216 16.0799C31.4416 16.2008 31.5842 16.2969 31.7413 16.3627C31.8983 16.4285 32.0669 16.4627 32.2372 16.4634L32.2475 13.8696ZM41.3206 29.0001C41.3206 29.344 41.4573 29.6739 41.7005 29.9171C41.9437 30.1603 42.2736 30.297 42.6175 30.297C42.9615 30.297 43.2914 30.1603 43.5346 29.9171C43.7778 29.6739 43.9144 29.344 43.9144 29.0001H41.3206ZM27.0548 47.5889C27.3987 47.5889 27.7286 47.4523 27.9718 47.2091C28.215 46.9659 28.3517 46.636 28.3517 46.292C28.3517 45.9481 28.215 45.6182 27.9718 45.375C27.7286 45.1318 27.3987 44.9951 27.0548 44.9951V47.5889ZM30.0809 29.0001C30.0809 30.214 29.1177 31.1616 27.973 31.1616V33.7554C30.5892 33.7554 32.6747 31.6077 32.6747 29.0001H30.0809ZM27.973 31.1616C26.83 31.1616 25.8668 30.214 25.8668 29.0001H23.273C23.273 31.6077 25.3584 33.7554 27.973 33.7554V31.1616ZM25.8685 29.0001C25.8685 27.7862 26.8317 26.8386 27.9747 26.8386V24.2448C25.3602 24.2448 23.2748 26.3925 23.2748 29.0001H25.8685ZM27.9747 26.8386C29.1194 26.8386 30.0826 27.7862 30.0826 29.0001H32.6764C32.6764 26.3925 30.591 24.2448 27.9747 24.2448V26.8386ZM22.8148 40.2623C23.9641 39.0303 25.5163 38.2527 27.1914 38.0714L26.9199 35.4915C24.6262 35.7385 22.496 36.8021 20.9213 38.4882L22.8148 40.2623ZM14.5181 34.824V26.6345H11.9243V34.824H14.5181ZM25.3256 44.9951C22.4378 44.9951 20.3956 44.9934 18.848 44.7963C17.3315 44.6026 16.4894 44.2429 15.8859 43.6723L14.1014 45.5537C15.272 46.6621 16.7419 47.1411 18.5212 47.3693C20.2694 47.5906 22.507 47.5889 25.3256 47.5889V44.9951ZM11.9243 34.824C11.9243 37.4887 11.9209 39.6243 12.1595 41.2981C12.4016 43.0169 12.9221 44.4366 14.1014 45.5537L15.8859 43.6706C15.2928 43.1086 14.9262 42.3391 14.7273 40.9332C14.5198 39.4842 14.5181 37.5665 14.5181 34.824H11.9243ZM43.9144 26.6345C43.9144 23.9699 43.9179 21.8343 43.6793 20.1604C43.4372 18.4416 42.9167 17.0219 41.7374 15.9049L39.9528 17.7862C40.5459 18.3482 40.9125 19.1195 41.1114 20.5253C41.3189 21.9744 41.3206 23.892 41.3206 26.6345H43.9144ZM14.5181 26.6345C14.5181 23.892 14.5216 21.9744 14.7256 20.5253C14.9262 19.1212 15.2928 18.35 15.8842 17.788L14.1031 15.9032C12.9221 17.0219 12.4033 18.4416 12.1595 20.1604C11.9209 21.8343 11.9243 23.9699 11.9243 26.6345H14.5181ZM23.5912 13.8731C21.319 13.88 19.4619 13.9215 17.9609 14.1722C16.4289 14.4264 15.1458 14.9158 14.1014 15.9049L15.8859 17.7862C16.4254 17.2744 17.1569 16.9355 18.3863 16.7297C19.6486 16.5205 21.3017 16.4721 23.6016 16.4634L23.5912 13.8731ZM32.2372 16.4669C34.537 16.4738 36.1901 16.5205 37.4524 16.7297C38.6819 16.9355 39.4133 17.2744 39.9528 17.7862L41.7374 15.9049C40.6929 14.9175 39.4099 14.4264 37.8778 14.1722C36.3769 13.9215 34.5197 13.8783 32.2475 13.8696L32.2372 16.4669ZM41.3206 26.6345V29.0001H43.9144V26.6345H41.3206ZM27.0548 44.9951H25.3256V47.5889H27.0548V44.9951ZM30.508 14.8207L30.6515 15.4432L33.1796 14.8587L33.0361 14.2379L30.508 14.8207ZM28.7805 17.328H27.0582V19.9218H28.7805V17.328ZM25.1872 15.4432L25.3308 14.8207L22.8027 14.2379L22.6592 14.8605L25.1872 15.4432ZM27.0582 17.328C26.3129 17.328 25.8391 17.328 25.4881 17.2952C25.3548 17.2849 25.2227 17.2617 25.0939 17.226L25.08 17.2208L23.7347 19.4376C24.2275 19.7368 24.7619 19.8353 25.2616 19.8803C25.7527 19.9235 26.3596 19.9218 27.0582 19.9218V17.328ZM22.6592 14.8605C22.5191 15.4674 22.3877 16.0242 22.3306 16.4894C22.2735 16.9718 22.2701 17.5286 22.5226 18.0854L24.8846 17.0133C24.9158 17.0825 24.8743 17.0756 24.9071 16.8006C24.9417 16.5066 25.0333 16.1072 25.1872 15.4432L22.6592 14.8605ZM25.08 17.2208C24.9968 17.1712 24.9291 17.0994 24.8846 17.0133L22.5226 18.0854C22.7819 18.656 23.2125 19.1195 23.7347 19.4376L25.08 17.2208ZM30.6515 15.4432C30.8071 16.1072 30.8953 16.5066 30.9316 16.8006C30.9662 17.0773 30.923 17.0807 30.9541 17.0133L33.3162 18.0854C33.5686 17.5286 33.5652 16.9718 33.5064 16.4894C33.4511 16.0242 33.3196 15.4691 33.1779 14.8605L30.6515 15.4432ZM28.7805 19.9218C29.4791 19.9218 30.0861 19.9218 30.5789 19.8803C31.0769 19.8353 31.6129 19.7368 32.1057 19.4376L30.7587 17.2208H30.7552L30.7449 17.226L30.6861 17.245C30.6221 17.2623 30.5184 17.2813 30.3506 17.2969C29.9996 17.3263 29.5258 17.328 28.7805 17.328V19.9218ZM30.9541 17.0133C30.9096 17.0994 30.8419 17.1712 30.7587 17.2208L32.1057 19.4376C32.6297 19.1195 33.0585 18.6543 33.3162 18.0854L30.9541 17.0133ZM27.9194 13.005C28.8013 13.005 29.0261 13.0137 29.199 13.0534L29.7817 10.5254C29.2508 10.4043 28.6647 10.4112 27.9194 10.4112V13.005ZM33.0361 14.2379C32.8873 13.5981 32.768 13.0275 32.5035 12.5416L30.2244 13.7797C30.278 13.88 30.3247 14.027 30.508 14.8224L33.0361 14.2379ZM29.199 13.0534C29.6883 13.1658 30.0463 13.4512 30.2244 13.7797L32.5035 12.5416C32.2171 12.033 31.8266 11.5906 31.3577 11.2432C30.8887 10.8957 30.3517 10.6511 29.7817 10.5254L29.199 13.0534ZM27.9194 10.4112C27.1741 10.4112 26.5879 10.4026 26.057 10.5254L26.6398 13.0534C26.8127 13.0137 27.0375 13.005 27.9194 13.005V10.4112ZM25.3308 14.8207C25.5141 14.027 25.5607 13.88 25.6144 13.7797L23.337 12.5416C23.0742 13.0258 22.9531 13.5964 22.8044 14.2362L25.3308 14.8207ZM26.057 10.5254C25.4871 10.6511 24.9501 10.8957 24.4811 11.2432C24.0121 11.5906 23.6217 12.033 23.3353 12.5416L25.6144 13.7797C25.7254 13.594 25.8739 13.4335 26.0505 13.3085C26.2271 13.1834 26.4278 13.0966 26.6398 13.0534L26.057 10.5254Z" fill="#787878"/>
<path d="M21.8672 39.3752C23.4529 37.6858 25.7112 36.8022 27.973 36.7815M31.3778 29.0001C31.3778 30.9108 29.8543 32.4585 27.973 32.4585C26.0933 32.4585 24.5699 30.9108 24.5699 29.0001C24.5699 27.0893 26.0933 25.5417 27.973 25.5417C29.8561 25.5417 31.3778 27.0893 31.3778 29.0001Z" stroke="#787878" stroke-width="1.63" stroke-linecap="round" stroke-linejoin="round"/>
<path d="M23.5964 15.17C19.0244 15.1873 16.5776 15.3464 14.9936 16.8473C13.2212 18.5263 13.2212 21.2291 13.2212 26.6345V34.8257C13.2212 40.2312 13.2212 42.9357 14.9936 44.613C16.766 46.2937 19.6192 46.2937 25.3256 46.2937H28.7839M32.2423 15.1682C36.8143 15.1855 39.2611 15.3464 40.8451 16.8456C42.6175 18.5263 42.6175 21.2291 42.6175 26.6345V28.1372" stroke="#787878" stroke-width="1.63" stroke-linecap="round" stroke-linejoin="round"/>
<path d="M24.0666 14.5302C24.2326 13.8126 24.3156 13.4529 24.4747 13.1607C24.6724 12.8129 24.9415 12.511 25.2643 12.2747C25.5871 12.0383 25.9562 11.873 26.3474 11.7894C26.6984 11.7081 27.1065 11.7081 27.9192 11.7081C28.7319 11.7081 29.14 11.7081 29.4911 11.7894C29.8823 11.873 30.2514 12.0383 30.5741 12.2747C30.8969 12.511 31.166 12.8129 31.3638 13.1607C31.5229 13.4546 31.6059 13.8126 31.7719 14.5302L31.9154 15.1527C32.2094 16.4236 32.3563 17.06 32.135 17.5493C31.9841 17.8741 31.7389 18.1459 31.4312 18.3292C30.9453 18.6249 30.2225 18.6249 28.7804 18.6249H27.0581C25.6159 18.6249 24.8931 18.6249 24.4072 18.3309C24.0993 18.1472 23.854 17.8748 23.7034 17.5493C23.4821 17.06 23.6291 16.4254 23.923 15.1527L24.0666 14.5302Z" stroke="#787878" stroke-width="1.63" stroke-linecap="round" stroke-linejoin="round"/>
</svg>
