<svg width="58" height="58" viewBox="0 0 58 58" fill="none" xmlns="http://www.w3.org/2000/svg">
<rect width="58" height="58" rx="8" fill="white" fill-opacity="0.05"/>
<path d="M8.18945 43.1929V41.134C8.18945 37.3116 9.70791 33.6457 12.4108 30.9428C15.1137 28.2399 18.7795 26.7215 22.602 26.7215" stroke="#787878" stroke-width="3.625" stroke-linecap="round" stroke-linejoin="round"/>
<path d="M36.6108 27.368C36.9327 27.1998 37.3037 26.7527 37.7277 26.5658C38.1517 26.3788 38.61 26.2823 39.0733 26.2823C39.5367 26.2823 39.9949 26.3788 40.4189 26.5658C40.8429 26.7527 41.2233 27.0259 41.5358 27.368C42.2049 28.101 43.1623 28.4983 44.1548 28.451C44.6178 28.4299 45.0802 28.5056 45.5125 28.6732C45.9447 28.8408 46.3372 29.0967 46.665 29.4245C46.9928 29.7523 47.2486 30.1448 47.4163 30.577C47.5839 31.0092 47.6596 31.4716 47.6385 31.9347C47.5911 32.925 47.9885 33.8845 48.7215 34.5536C50.173 35.8755 50.173 38.1568 48.7215 39.4786C47.9885 40.1478 47.5911 41.1052 47.6385 42.0976C47.6596 42.5607 47.5839 43.0231 47.4163 43.4553C47.2486 43.8875 46.9928 44.28 46.665 44.6078C46.3372 44.9356 45.9447 45.1915 45.5125 45.3591C45.0802 45.5267 44.6178 45.6024 44.1548 45.5813C43.6655 45.5584 43.1772 45.6436 42.7245 45.8308C42.2719 46.018 41.866 46.3026 41.5358 46.6643C41.2233 47.0064 40.8429 47.2796 40.4189 47.4665C39.9949 47.6534 39.5367 47.75 39.0733 47.75C38.61 47.75 38.1517 47.6534 37.7277 47.4665C37.3037 47.2796 36.9234 47.0064 36.6108 46.6643C36.2806 46.3026 35.8747 46.018 35.4221 45.8308C34.9694 45.6436 34.4811 45.5584 33.9919 45.5813C33.5288 45.6024 33.0664 45.5267 32.6342 45.3591C32.2019 45.1915 31.8094 44.9356 31.4816 44.6078C31.1538 44.28 30.898 43.8875 30.7304 43.4553C30.5627 43.0231 30.4871 42.5607 30.5081 42.0976C30.5307 41.6081 30.4452 41.1197 30.2577 40.6671C30.0702 40.2144 29.7852 39.8087 29.4231 39.4786C29.081 39.1661 28.8078 38.7857 28.6209 38.3617C28.4339 37.9378 28.3374 37.4795 28.3374 37.0161C28.3374 36.5528 28.4339 36.0945 28.6209 35.6705C28.8078 35.2466 29.081 34.8662 29.4231 34.5536C30.1581 33.8845 30.5555 32.9271 30.5081 31.9347C30.4871 31.4716 30.5627 31.0092 30.7304 30.577C30.898 30.1448 31.1538 29.7523 31.4816 29.4245C31.8094 29.0967 32.2019 28.8408 32.6342 28.6732C33.0664 28.5056 33.5288 28.4299 33.9919 28.451C35.235 28.5076 36.2955 27.5184 36.6108 27.3659V27.368Z" stroke="#787878" stroke-width="2.63"/>
<path d="M35.705 37.0161L37.9492 39.2604L42.4418 34.7719M22.6019 26.7215C24.7862 26.7215 26.881 25.8538 28.4255 24.3093C29.97 22.7648 30.8377 20.67 30.8377 18.4857C30.8377 16.3015 29.97 14.2067 28.4255 12.6622C26.881 11.1177 24.7862 10.25 22.6019 10.25C20.4177 10.25 18.3229 11.1177 16.7784 12.6622C15.2339 14.2067 14.3662 16.3015 14.3662 18.4857C14.3662 20.67 15.2339 22.7648 16.7784 24.3093C18.3229 25.8538 20.4177 26.7215 22.6019 26.7215Z" stroke="#787878" stroke-width="3.625" stroke-linecap="round" stroke-linejoin="round"/>
</svg>
